
<svg xlink="http://www.w3.org/1999/xlink" viewBox="0 0 5000 5000" xmlns="http://www.w3.org/2000/svg" style="transform: scale(1);"><defs><filter id="goo"><feGaussianBlur in="SourceGraphic" stdDeviation="4.375" result="blur"></feGaussianBlur><feColorMatrix in="blur" type="matrix" values="1 0 0 0 0 0 1 0 0 0 0 0 1 0 0 0 0 0 19 -9" result="good"></feColorMatrix><feComposite in="SourceGraphic" in2="goo" operator="atop"></feComposite></filter><path d="M273,274L240,281C231,255 236,237 254,217L283,248C267,254 265,259 273,274z" id="P0"></path><path d="M262,250L253,262L243,260L239,244L262,250z" id="P1"></path><path d="M265,277C252,283 238,281 227,271L220,242C231,221 257,216 274,230Q296,256 265,277z" id="P2"></path><path d="M258,235L250,267L233,247L241,236L258,235z" id="P3"></path><path d="M235,268C237,252 238,244 241,228C244,226 247,226 248,226C271,232 277,257 257,273Q245,286 235,268z" id="P4"></path><path d="M254,260L244,259L239,249L260,247L254,260z" id="P5"></path><path d="M247,210L284,271C271,288 250,293 231,285Q199,282 211,257C230,242 237,232 247,210z" id="P6"></path><path d="M269,246L260,266L232,243L239,235L269,246z" id="P7"></path><path d="M274,270C258,283 237,282 223,265Q209,228 250,219L273,229L274,270z" id="P8"></path><path d="M259,266L237,262L257,233L267,256L259,266z" id="P9"></path></defs><rect id="RECT" width="5000" height="5000" fill="#242120"></rect><g id="group" fill="#2B2B2B" filter="url(#goo)"><use x="205" y="203" href="#P0"></use><use x="-109" y="252" href="#P8"></use><use x="-248" y="486" href="#P7"></use><use x="-259" y="661" href="#P0"></use><use x="-370" y="917" href="#P3"></use><use x="56" y="1321" href="#P2"></use><use x="170" y="1800" href="#P2"></use><use x="214" y="2132" href="#P8"></use><use x="241" y="2247" href="#P8"></use><use x="162" y="2484" href="#P1"></use><use x="150" y="2674" href="#P2"></use><use x="215" y="3080" href="#P9"></use><use x="-80" y="3254" href="#P9"></use><use x="128" y="3780" href="#P0"></use><use x="-341" y="4173" href="#P5"></use><use x="-317" y="4390" href="#P3"></use><use x="-82" y="4779" href="#P4"></use><use x="-8" y="4887" href="#P6"></use><use x="126" y="5176" href="#P0"></use><use x="265" y="-184" href="#P1"></use><use x="35" y="133" href="#P8"></use><use x="-44" y="329" href="#P5"></use><use x="297" y="780" href="#P4"></use><use x="276" y="1107" href="#P4"></use><use x="280" y="1426" href="#P4"></use><use x="307" y="1672" href="#P1"></use><use x="172" y="1832" href="#P5"></use><use x="94" y="2200" href="#P6"></use><use x="98" y="2490" href="#P6"></use><use x="150" y="2944" href="#P6"></use><use x="164" y="3113" href="#P8"></use><use x="222" y="3463" href="#P9"></use><use x="216" y="3685" href="#P2"></use><use x="397" y="3903" href="#P4"></use><use x="-137" y="4450" href="#P2"></use><use x="143" y="4777" href="#P3"></use><use x="108" y="4900" href="#P1"></use><use x="321" y="4974" href="#P0"></use><use x="480" y="-148" href="#P9"></use><use x="385" y="-75" href="#P6"></use><use x="436" y="675" href="#P2"></use><use x="664" y="1050" href="#P2"></use><use x="565" y="1068" href="#P6"></use><use x="363" y="1258" href="#P3"></use><use x="451" y="1477" href="#P6"></use><use x="221" y="2031" href="#P2"></use><use x="734" y="2192" href="#P9"></use><use x="184" y="2656" href="#P2"></use><use x="576" y="2742" href="#P9"></use><use x="233" y="3244" href="#P4"></use><use x="408" y="3495" href="#P7"></use><use x="408" y="3838" href="#P0"></use><use x="543" y="4009" href="#P8"></use><use x="776" y="4074" href="#P4"></use><use x="261" y="4887" href="#P5"></use><use x="422" y="5155" href="#P2"></use><use x="529" y="5342" href="#P1"></use><use x="731" y="-348" href="#P6"></use><use x="559" y="-132" href="#P8"></use><use x="801" y="585" href="#P1"></use><use x="784" y="767" href="#P6"></use><use x="728" y="859" href="#P5"></use><use x="600" y="1161" href="#P9"></use><use x="943" y="1614" href="#P0"></use><use x="816" y="1850" href="#P2"></use><use x="788" y="2332" href="#P4"></use><use x="882" y="2476" href="#P1"></use><use x="1002" y="2931" href="#P3"></use><use x="1019" y="3115" href="#P4"></use><use x="480" y="3534" href="#P4"></use><use x="729" y="3917" href="#P2"></use><use x="688" y="4146" href="#P7"></use><use x="666" y="4213" href="#P3"></use><use x="955" y="4454" href="#P0"></use><use x="979" y="4840" href="#P6"></use><use x="830" y="5380" href="#P9"></use><use x="1089" y="86" href="#P5"></use><use x="1259" y="197" href="#P1"></use><use x="1240" y="385" href="#P2"></use><use x="949" y="743" href="#P3"></use><use x="1326" y="1287" href="#P3"></use><use x="1339" y="1597" href="#P2"></use><use x="1219" y="1686" href="#P6"></use><use x="1287" y="2073" href="#P7"></use><use x="1125" y="2360" href="#P1"></use><use x="1093" y="2635" href="#P9"></use><use x="1221" y="2914" href="#P7"></use><use x="1365" y="3040" href="#P7"></use><use x="1423" y="3422" href="#P2"></use><use x="1159" y="3760" href="#P4"></use><use x="1004" y="4218" href="#P3"></use><use x="1030" y="4497" href="#P8"></use><use x="1219" y="4589" href="#P4"></use><use x="1219" y="4862" href="#P0"></use><use x="1273" y="4976" href="#P0"></use><use x="1412" y="-75" href="#P5"></use><use x="1551" y="496" href="#P7"></use><use x="1446" y="372" href="#P6"></use><use x="1346" y="538" href="#P1"></use><use x="1365" y="1029" href="#P2"></use><use x="1425" y="1495" href="#P6"></use><use x="1380" y="1722" href="#P2"></use><use x="1228" y="1834" href="#P8"></use><use x="1308" y="2037" href="#P7"></use><use x="1286" y="2553" href="#P4"></use><use x="1321" y="2828" href="#P0"></use><use x="1198" y="3066" href="#P0"></use><use x="1417" y="3543" href="#P9"></use><use x="1470" y="3486" href="#P1"></use><use x="1463" y="4058" href="#P8"></use><use x="1442" y="4512" href="#P9"></use><use x="1495" y="4753" href="#P1"></use><use x="1526" y="4735" href="#P9"></use><use x="1585" y="5142" href="#P2"></use><use x="1858" y="2" href="#P3"></use><use x="1686" y="370" href="#P2"></use><use x="1666" y="363" href="#P8"></use><use x="1794" y="938" href="#P4"></use><use x="1745" y="1059" href="#P7"></use><use x="1660" y="1325" href="#P3"></use><use x="1857" y="1796" href="#P5"></use><use x="1781" y="2059" href="#P2"></use><use x="1661" y="2319" href="#P4"></use><use x="1688" y="2456" href="#P9"></use><use x="1866" y="2722" href="#P5"></use><use x="1446" y="3230" href="#P3"></use><use x="1665" y="3571" href="#P4"></use><use x="1788" y="3803" href="#P9"></use><use x="1880" y="3913" href="#P8"></use><use x="1756" y="4145" href="#P1"></use><use x="1812" y="4746" href="#P7"></use><use x="1598" y="4813" href="#P8"></use><use x="1669" y="5155" href="#P6"></use><use x="2127" y="91" href="#P3"></use><use x="2129" y="110" href="#P8"></use><use x="1873" y="203" href="#P1"></use><use x="2010" y="1033" href="#P0"></use><use x="1975" y="1147" href="#P1"></use><use x="1901" y="1213" href="#P4"></use><use x="2211" y="1781" href="#P3"></use><use x="2131" y="1984" href="#P2"></use><use x="2118" y="2207" href="#P9"></use><use x="2016" y="2604" href="#P2"></use><use x="2100" y="2746" href="#P2"></use><use x="2242" y="2966" href="#P1"></use><use x="1815" y="3634" href="#P5"></use><use x="1911" y="3726" href="#P7"></use><use x="2072" y="3773" href="#P6"></use><use x="1873" y="4668" href="#P3"></use><use x="2040" y="4711" href="#P7"></use><use x="2141" y="4907" href="#P0"></use><use x="1936" y="5214" href="#P9"></use><use x="2266" y="-98" href="#P0"></use><use x="2335" y="102" href="#P4"></use><use x="2195" y="234" href="#P0"></use><use x="2288" y="899" href="#P0"></use><use x="2483" y="1058" href="#P8"></use><use x="2203" y="1285" href="#P5"></use><use x="2135" y="1342" href="#P3"></use><use x="2492" y="2014" href="#P0"></use><use x="2241" y="2199" href="#P9"></use><use x="2286" y="2543" href="#P4"></use><use x="2378" y="2967" href="#P9"></use><use x="2376" y="3017" href="#P2"></use><use x="2249" y="3334" href="#P8"></use><use x="2199" y="3856" href="#P9"></use><use x="2481" y="3824" href="#P6"></use><use x="2291" y="4148" href="#P3"></use><use x="2380" y="4753" href="#P4"></use><use x="2436" y="4884" href="#P8"></use><use x="2297" y="4920" href="#P9"></use><use x="2545" y="10" href="#P1"></use><use x="2753" y="32" href="#P3"></use><use x="2741" y="264" href="#P6"></use><use x="2764" y="980" href="#P0"></use><use x="2516" y="1052" href="#P4"></use><use x="2773" y="1268" href="#P6"></use><use x="2745" y="1784" href="#P3"></use><use x="2572" y="2133" href="#P4"></use><use x="2836" y="2269" href="#P0"></use><use x="2631" y="2538" href="#P8"></use><use x="2665" y="2807" href="#P8"></use><use x="2598" y="3122" href="#P0"></use><use x="2653" y="3286" href="#P3"></use><use x="2505" y="3804" href="#P4"></use><use x="2583" y="3886" href="#P2"></use><use x="2564" y="4306" href="#P3"></use><use x="2666" y="4808" href="#P1"></use><use x="2540" y="4768" href="#P2"></use><use x="2539" y="5197" href="#P7"></use><use x="2881" y="223" href="#P9"></use><use x="2915" y="58" href="#P9"></use><use x="2907" y="274" href="#P4"></use><use x="2917" y="868" href="#P9"></use><use x="2949" y="1088" href="#P3"></use><use x="3174" y="1289" href="#P2"></use><use x="2985" y="1776" href="#P9"></use><use x="3019" y="1889" href="#P0"></use><use x="2928" y="2198" href="#P6"></use><use x="2833" y="2429" href="#P3"></use><use x="2900" y="2680" href="#P3"></use><use x="2928" y="3126" href="#P9"></use><use x="3205" y="3601" href="#P2"></use><use x="3058" y="3866" href="#P5"></use><use x="2831" y="3844" href="#P6"></use><use x="2986" y="4209" href="#P5"></use><use x="2878" y="4792" href="#P7"></use><use x="2810" y="4704" href="#P5"></use><use x="2989" y="4997" href="#P7"></use><use x="3337" y="12" href="#P8"></use><use x="3144" y="324" href="#P1"></use><use x="3450" y="308" href="#P9"></use><use x="3380" y="864" href="#P7"></use><use x="3033" y="1296" href="#P7"></use><use x="3412" y="1355" href="#P6"></use><use x="3389" y="1462" href="#P9"></use><use x="3458" y="1744" href="#P1"></use><use x="3353" y="2201" href="#P9"></use><use x="3089" y="2540" href="#P8"></use><use x="3166" y="2906" href="#P9"></use><use x="3194" y="3199" href="#P1"></use><use x="3392" y="3449" href="#P1"></use><use x="3356" y="3694" href="#P9"></use><use x="3162" y="3919" href="#P4"></use><use x="3416" y="4625" href="#P1"></use><use x="3335" y="4770" href="#P4"></use><use x="3305" y="4856" href="#P6"></use><use x="3160" y="5137" href="#P6"></use><use x="3416" y="40" href="#P9"></use><use x="3572" y="270" href="#P6"></use><use x="3618" y="359" href="#P7"></use><use x="3770" y="558" href="#P4"></use><use x="3660" y="948" href="#P3"></use><use x="3421" y="1535" href="#P1"></use><use x="3610" y="1529" href="#P5"></use><use x="3730" y="1963" href="#P1"></use><use x="3724" y="2166" href="#P8"></use><use x="3449" y="2608" href="#P8"></use><use x="3785" y="2718" href="#P6"></use><use x="3670" y="3222" href="#P2"></use><use x="3481" y="3565" href="#P3"></use><use x="3464" y="3588" href="#P8"></use><use x="3490" y="3838" href="#P8"></use><use x="3716" y="4466" href="#P0"></use><use x="3537" y="4630" href="#P0"></use><use x="3572" y="4635" href="#P8"></use><use x="3492" y="5124" href="#P2"></use><use x="3684" y="70" href="#P4"></use><use x="3702" y="428" href="#P7"></use><use x="3864" y="511" href="#P7"></use><use x="3998" y="751" href="#P0"></use><use x="4176" y="976" href="#P9"></use><use x="3617" y="1491" href="#P3"></use><use x="3847" y="1629" href="#P1"></use><use x="3836" y="1998" href="#P2"></use><use x="3931" y="2120" href="#P7"></use><use x="3938" y="2693" href="#P8"></use><use x="3888" y="2907" href="#P3"></use><use x="3795" y="3002" href="#P7"></use><use x="3798" y="3284" href="#P4"></use><use x="3935" y="3834" href="#P3"></use><use x="4063" y="4264" href="#P1"></use><use x="3984" y="4454" href="#P0"></use><use x="3797" y="4601" href="#P4"></use><use x="3953" y="4757" href="#P9"></use><use x="3995" y="5496" href="#P8"></use><use x="4037" y="85" href="#P1"></use><use x="4274" y="352" href="#P6"></use><use x="4032" y="706" href="#P3"></use><use x="4023" y="878" href="#P9"></use><use x="4219" y="885" href="#P4"></use><use x="4396" y="1277" href="#P4"></use><use x="4230" y="1564" href="#P7"></use><use x="3883" y="1992" href="#P2"></use><use x="4195" y="2324" href="#P8"></use><use x="4238" y="2591" href="#P6"></use><use x="3945" y="2709" href="#P0"></use><use x="4194" y="3132" href="#P6"></use><use x="4096" y="3468" href="#P3"></use><use x="4418" y="3735" href="#P2"></use><use x="4145" y="4234" href="#P9"></use><use x="4190" y="4256" href="#P4"></use><use x="3951" y="4459" href="#P6"></use><use x="4033" y="4922" href="#P8"></use><use x="4201" y="5432" href="#P4"></use><use x="4664" y="-138" href="#P7"></use><use x="4283" y="396" href="#P3"></use><use x="4449" y="631" href="#P5"></use><use x="4365" y="862" href="#P3"></use><use x="4545" y="1091" href="#P7"></use><use x="4584" y="1198" href="#P5"></use><use x="4575" y="1489" href="#P5"></use><use x="4703" y="1799" href="#P1"></use><use x="4435" y="2282" href="#P7"></use><use x="4342" y="2656" href="#P2"></use><use x="4315" y="2950" href="#P1"></use><use x="4678" y="3118" href="#P7"></use><use x="4722" y="3426" href="#P8"></use><use x="4463" y="3836" href="#P1"></use><use x="4555" y="3911" href="#P4"></use><use x="4220" y="4042" href="#P5"></use><use x="4324" y="4599" href="#P5"></use><use x="4640" y="5075" href="#P1"></use><use x="4682" y="5183" href="#P2"></use><use x="4816" y="-97" href="#P9"></use><use x="4797" y="13" href="#P3"></use><use x="5082" y="466" href="#P7"></use><use x="4802" y="812" href="#P9"></use><use x="4663" y="1031" href="#P0"></use><use x="4652" y="1400" href="#P7"></use><use x="4767" y="1686" href="#P9"></use><use x="4846" y="1973" href="#P1"></use><use x="4880" y="2155" href="#P4"></use><use x="4852" y="2441" href="#P0"></use><use x="4863" y="2928" href="#P1"></use><use x="4874" y="3066" href="#P7"></use><use x="4799" y="3413" href="#P9"></use><use x="4668" y="3739" href="#P0"></use><use x="4520" y="3934" href="#P6"></use><use x="4691" y="4167" href="#P1"></use><use x="4849" y="4876" href="#P3"></use><use x="4826" y="4903" href="#P0"></use><use x="4691" y="5222" href="#P4"></use><use x="4857" y="1" href="#P5"></use><use x="4914" y="330" href="#P1"></use><use x="5135" y="451" href="#P0"></use><use x="5182" y="564" href="#P2"></use><use x="5114" y="1164" href="#P2"></use><use x="4801" y="1578" href="#P2"></use><use x="5008" y="1592" href="#P4"></use><use x="4790" y="2093" href="#P7"></use><use x="4922" y="2192" href="#P4"></use><use x="4723" y="2569" href="#P3"></use><use x="5071" y="2717" href="#P5"></use><use x="5110" y="3236" href="#P7"></use><use x="5054" y="3296" href="#P7"></use><use x="4811" y="3622" href="#P2"></use><use x="5028" y="3944" href="#P4"></use><use x="5270" y="4453" href="#P0"></use><use x="5094" y="4613" href="#P7"></use><use x="5025" y="4743" href="#P8"></use><use x="4911" y="5053" href="#P4"></use></g></svg>
