<svg xmlns="http://www.w3.org/2000/svg" version="1.1" xmlns:xlink="http://www.w3.org/1999/xlink" xmlns:svgjs="http://svgjs.dev/svgjs" viewBox="0 0 1422 800"><circle r="12.5" cx="644" cy="276" fill="hsl(9, 72%, 42%)" opacity="0.84"></circle><circle r="15" cx="1399" cy="302" fill="hsl(30, 72%, 42%)" opacity="0.69"></circle><circle r="7.5" cx="733" cy="266" fill="hsl(7, 72%, 42%)" opacity="0.34"></circle><circle r="17.5" cx="1261" cy="464" fill="hsl(29, 72%, 42%)" opacity="0.36"></circle><circle r="16" cx="576" cy="326" fill="hsl(10, 72%, 42%)" opacity="0.70"></circle><circle r="7.5" cx="583" cy="613" fill="hsl(9, 72%, 42%)" opacity="0.46"></circle><circle r="10.5" cx="758" cy="579" fill="hsl(7, 72%, 42%)" opacity="0.30"></circle><circle r="9" cx="804" cy="419" fill="hsl(8, 72%, 42%)" opacity="0.40"></circle><circle r="12" cx="261" cy="429" fill="hsl(8, 72%, 42%)" opacity="0.71"></circle><circle r="15" cx="433" cy="760" fill="hsl(10, 72%, 42%)" opacity="0.83"></circle><circle r="9" cx="511" cy="529" fill="hsl(10, 72%, 42%)" opacity="0.74"></circle><circle r="18.5" cx="1081" cy="387" fill="hsl(20, 72%, 42%)" opacity="0.84"></circle><circle r="20.5" cx="36" cy="752" fill="hsl(18, 72%, 42%)" opacity="0.87"></circle><circle r="16" cx="127" cy="345" fill="hsl(12, 72%, 42%)" opacity="0.19"></circle><circle r="16" cx="1311" cy="348" fill="hsl(30, 72%, 42%)" opacity="0.12"></circle><circle r="18.5" cx="150" cy="440" fill="hsl(11, 72%, 42%)" opacity="0.68"></circle><circle r="7.5" cx="152" cy="166" fill="hsl(11, 72%, 42%)" opacity="0.27"></circle><circle r="9.5" cx="924" cy="672" fill="hsl(11, 72%, 42%)" opacity="0.38"></circle><circle r="11" cx="193" cy="234" fill="hsl(10, 72%, 42%)" opacity="0.24"></circle><circle r="16" cx="1313" cy="489" fill="hsl(30, 72%, 42%)" opacity="0.99"></circle><circle r="14" cx="323" cy="378" fill="hsl(8, 72%, 42%)" opacity="0.58"></circle><circle r="8.5" cx="230" cy="171" fill="hsl(8, 72%, 42%)" opacity="0.23"></circle><circle r="6" cx="76" cy="14" fill="hsl(14, 72%, 42%)" opacity="0.20"></circle><circle r="21" cx="1296" cy="196" fill="hsl(30, 72%, 42%)" opacity="0.25"></circle><circle r="10" cx="690" cy="629" fill="hsl(8, 72%, 42%)" opacity="0.24"></circle><circle r="17" cx="379" cy="172" fill="hsl(9, 72%, 42%)" opacity="0.47"></circle><circle r="14" cx="1335" cy="435" fill="hsl(31, 72%, 42%)" opacity="0.16"></circle><circle r="9.5" cx="323" cy="644" fill="hsl(8, 72%, 42%)" opacity="0.39"></circle><circle r="20" cx="1377" cy="484" fill="hsl(31, 72%, 42%)" opacity="0.52"></circle><circle r="11.5" cx="25" cy="275" fill="hsl(18, 72%, 42%)" opacity="0.70"></circle><circle r="15" cx="1139" cy="364" fill="hsl(24, 72%, 42%)" opacity="1.00"></circle><circle r="20" cx="1247" cy="603" fill="hsl(29, 72%, 42%)" opacity="0.76"></circle><circle r="24" cx="1092" cy="156" fill="hsl(21, 72%, 42%)" opacity="0.29"></circle><circle r="17.5" cx="571" cy="227" fill="hsl(10, 72%, 42%)" opacity="0.26"></circle><circle r="10" cx="674" cy="97" fill="hsl(10, 72%, 42%)" opacity="0.40"></circle><circle r="14" cx="821" cy="511" fill="hsl(8, 72%, 42%)" opacity="0.40"></circle><circle r="17" cx="1168" cy="423" fill="hsl(26, 72%, 42%)" opacity="0.74"></circle><circle r="13.5" cx="469" cy="605" fill="hsl(10, 72%, 42%)" opacity="0.95"></circle><circle r="14.5" cx="1340" cy="543" fill="hsl(31, 72%, 42%)" opacity="0.28"></circle><circle r="13.5" cx="69" cy="668" fill="hsl(15, 72%, 42%)" opacity="0.20"></circle><circle r="18.5" cx="1111" cy="541" fill="hsl(23, 72%, 42%)" opacity="0.98"></circle><circle r="16" cx="109" cy="515" fill="hsl(14, 72%, 42%)" opacity="0.59"></circle><circle r="8.5" cx="750" cy="170" fill="hsl(7, 72%, 42%)" opacity="0.85"></circle><circle r="22.5" cx="1376" cy="639" fill="hsl(31, 72%, 42%)" opacity="0.74"></circle><circle r="7" cx="743" cy="530" fill="hsl(7, 72%, 42%)" opacity="0.54"></circle><circle r="10.5" cx="60" cy="83" fill="hsl(15, 72%, 42%)" opacity="0.51"></circle><circle r="12.5" cx="832" cy="300" fill="hsl(8, 72%, 42%)" opacity="0.35"></circle><circle r="11.5" cx="121" cy="730" fill="hsl(12, 72%, 42%)" opacity="0.10"></circle><circle r="6" cx="620" cy="706" fill="hsl(9, 72%, 42%)" opacity="0.98"></circle><circle r="11" cx="774" cy="646" fill="hsl(7, 72%, 42%)" opacity="0.35"></circle><circle r="17" cx="1042" cy="515" fill="hsl(17, 72%, 42%)" opacity="0.10"></circle><circle r="11.5" cx="23" cy="645" fill="hsl(18, 72%, 42%)" opacity="0.39"></circle><circle r="19" cx="37" cy="538" fill="hsl(18, 72%, 42%)" opacity="0.28"></circle><circle r="9.5" cx="759" cy="455" fill="hsl(7, 72%, 42%)" opacity="0.63"></circle><circle r="10.5" cx="620" cy="636" fill="hsl(9, 72%, 42%)" opacity="0.31"></circle><circle r="10.5" cx="330" cy="307" fill="hsl(8, 72%, 42%)" opacity="0.18"></circle><circle r="9" cx="559" cy="520" fill="hsl(10, 72%, 42%)" opacity="0.70"></circle><circle r="12.5" cx="664" cy="377" fill="hsl(8, 72%, 42%)" opacity="0.61"></circle><circle r="9.5" cx="722" cy="768" fill="hsl(7, 72%, 42%)" opacity="0.92"></circle><circle r="7" cx="513" cy="676" fill="hsl(10, 72%, 42%)" opacity="0.66"></circle><circle r="10.5" cx="374" cy="539" fill="hsl(9, 72%, 42%)" opacity="0.79"></circle><circle r="10.5" cx="906" cy="42" fill="hsl(3, 72%, 42%)" opacity="0.14"></circle><circle r="14" cx="893" cy="252" fill="hsl(10, 72%, 42%)" opacity="0.49"></circle><circle r="13" cx="646" cy="173" fill="hsl(9, 72%, 42%)" opacity="0.78"></circle><circle r="15" cx="1125" cy="613" fill="hsl(23, 72%, 42%)" opacity="0.92"></circle><circle r="16" cx="600" cy="35" fill="hsl(16, 72%, 42%)" opacity="0.93"></circle><circle r="15.5" cx="977" cy="416" fill="hsl(13, 72%, 42%)" opacity="0.16"></circle><circle r="22" cx="513" cy="48" fill="hsl(16, 72%, 42%)" opacity="0.29"></circle><circle r="11.5" cx="593" cy="766" fill="hsl(9, 72%, 42%)" opacity="0.24"></circle><circle r="10.5" cx="110" cy="147" fill="hsl(13, 72%, 42%)" opacity="0.65"></circle><circle r="8" cx="809" cy="694" fill="hsl(8, 72%, 42%)" opacity="0.69"></circle></svg>