<svg xmlns="http://www.w3.org/2000/svg" version="1.1" xmlns:xlink="http://www.w3.org/1999/xlink" xmlns:svgjs="http://svgjs.dev/svgjs" viewBox="0 0 1422 800"><circle r="19.5" cx="645" cy="415" fill="hsl(239, 39%, 70%)" opacity="0.30"></circle><circle r="20.5" cx="352" cy="651" fill="hsl(220, 39%, 70%)" opacity="0.55"></circle><circle r="18" cx="1125" cy="227" fill="hsl(243, 39%, 70%)" opacity="0.90"></circle><circle r="18.5" cx="272" cy="134" fill="hsl(214, 39%, 70%)" opacity="0.80"></circle><circle r="19" cx="579" cy="613" fill="hsl(235, 39%, 70%)" opacity="0.97"></circle><circle r="20" cx="368" cy="96" fill="hsl(221, 39%, 70%)" opacity="0.32"></circle><circle r="17" cx="83" cy="126" fill="hsl(230, 39%, 70%)" opacity="0.25"></circle><circle r="17.5" cx="34" cy="294" fill="hsl(240, 39%, 70%)" opacity="0.61"></circle><circle r="17.5" cx="1071" cy="178" fill="hsl(247, 39%, 70%)" opacity="0.38"></circle><circle r="17.5" cx="778" cy="612" fill="hsl(248, 39%, 70%)" opacity="0.31"></circle><circle r="10.5" cx="1334" cy="739" fill="hsl(276, 39%, 70%)" opacity="0.76"></circle><circle r="21" cx="157" cy="377" fill="hsl(221, 39%, 70%)" opacity="0.82"></circle><circle r="16.5" cx="1149" cy="152" fill="hsl(251, 39%, 70%)" opacity="0.76"></circle><circle r="13.5" cx="607" cy="41" fill="hsl(267, 39%, 70%)" opacity="0.84"></circle><circle r="19" cx="241" cy="478" fill="hsl(217, 39%, 70%)" opacity="0.98"></circle><circle r="16.5" cx="1248" cy="474" fill="hsl(258, 39%, 70%)" opacity="1.00"></circle><circle r="20.5" cx="171" cy="172" fill="hsl(219, 39%, 70%)" opacity="0.34"></circle><circle r="19.5" cx="516" cy="315" fill="hsl(232, 39%, 70%)" opacity="0.74"></circle><circle r="19" cx="92" cy="398" fill="hsl(229, 39%, 70%)" opacity="0.75"></circle><circle r="18.5" cx="710" cy="460" fill="hsl(241, 39%, 70%)" opacity="0.16"></circle><circle r="20" cx="129" cy="456" fill="hsl(226, 39%, 70%)" opacity="0.67"></circle><circle r="16" cx="846" cy="407" fill="hsl(250, 39%, 70%)" opacity="0.76"></circle><circle r="18" cx="529" cy="659" fill="hsl(232, 39%, 70%)" opacity="0.88"></circle><circle r="14.5" cx="831" cy="284" fill="hsl(250, 39%, 70%)" opacity="0.55"></circle><circle r="12" cx="541" cy="27" fill="hsl(258, 39%, 70%)" opacity="0.37"></circle><circle r="10.5" cx="797" cy="40" fill="hsl(279, 39%, 70%)" opacity="0.47"></circle><circle r="16.5" cx="1255" cy="556" fill="hsl(258, 39%, 70%)" opacity="0.20"></circle><circle r="20" cx="336" cy="338" fill="hsl(220, 39%, 70%)" opacity="0.49"></circle><circle r="13.5" cx="1319" cy="34" fill="hsl(268, 39%, 70%)" opacity="0.28"></circle><circle r="14" cx="1305" cy="675" fill="hsl(267, 39%, 70%)" opacity="0.46"></circle><circle r="18" cx="30" cy="368" fill="hsl(240, 39%, 70%)" opacity="0.22"></circle><circle r="18" cx="941" cy="634" fill="hsl(249, 39%, 70%)" opacity="0.13"></circle><circle r="18" cx="485" cy="708" fill="hsl(230, 39%, 70%)" opacity="0.11"></circle><circle r="19" cx="1046" cy="546" fill="hsl(244, 39%, 70%)" opacity="0.61"></circle><circle r="11" cx="920" cy="41" fill="hsl(275, 39%, 70%)" opacity="0.80"></circle><circle r="18.5" cx="408" cy="513" fill="hsl(225, 39%, 70%)" opacity="0.90"></circle><circle r="14" cx="37" cy="27" fill="hsl(239, 39%, 70%)" opacity="0.95"></circle><circle r="9.5" cx="1392" cy="143" fill="hsl(284, 39%, 70%)" opacity="0.55"></circle><circle r="17.5" cx="975" cy="561" fill="hsl(248, 39%, 70%)" opacity="0.65"></circle><circle r="12" cx="1391" cy="43" fill="hsl(270, 39%, 70%)" opacity="0.29"></circle><circle r="17" cx="919" cy="193" fill="hsl(250, 39%, 70%)" opacity="0.78"></circle><circle r="14.5" cx="716" cy="155" fill="hsl(257, 39%, 70%)" opacity="0.99"></circle><circle r="21" cx="508" cy="405" fill="hsl(231, 39%, 70%)" opacity="0.80"></circle><circle r="17" cx="624" cy="768" fill="hsl(237, 39%, 70%)" opacity="0.62"></circle><circle r="18.5" cx="649" cy="180" fill="hsl(239, 39%, 70%)" opacity="0.14"></circle><circle r="19.5" cx="368" cy="254" fill="hsl(222, 39%, 70%)" opacity="0.60"></circle><circle r="14.5" cx="855" cy="340" fill="hsl(250, 39%, 70%)" opacity="0.94"></circle><circle r="19" cx="1149" cy="683" fill="hsl(244, 39%, 70%)" opacity="0.57"></circle><circle r="19.5" cx="227" cy="668" fill="hsl(217, 39%, 70%)" opacity="0.57"></circle><circle r="19.5" cx="97" cy="519" fill="hsl(229, 39%, 70%)" opacity="0.80"></circle><circle r="22" cx="147" cy="699" fill="hsl(223, 39%, 70%)" opacity="0.15"></circle><circle r="17" cx="1198" cy="764" fill="hsl(248, 39%, 70%)" opacity="0.53"></circle><circle r="14.5" cx="1274" cy="252" fill="hsl(263, 39%, 70%)" opacity="0.60"></circle><circle r="19" cx="576" cy="531" fill="hsl(235, 39%, 70%)" opacity="0.63"></circle><circle r="22.5" cx="180" cy="516" fill="hsl(219, 39%, 70%)" opacity="0.99"></circle><circle r="20" cx="589" cy="694" fill="hsl(235, 39%, 70%)" opacity="0.25"></circle><circle r="19.5" cx="375" cy="456" fill="hsl(222, 39%, 70%)" opacity="0.79"></circle><circle r="18.5" cx="1187" cy="524" fill="hsl(248, 39%, 70%)" opacity="0.71"></circle><circle r="19" cx="909" cy="273" fill="hsl(251, 39%, 70%)" opacity="0.79"></circle><circle r="11.5" cx="1387" cy="462" fill="hsl(284, 39%, 70%)" opacity="0.40"></circle><circle r="19.5" cx="521" cy="238" fill="hsl(232, 39%, 70%)" opacity="0.27"></circle><circle r="19.5" cx="131" cy="577" fill="hsl(226, 39%, 70%)" opacity="0.74"></circle><circle r="17" cx="704" cy="767" fill="hsl(241, 39%, 70%)" opacity="0.67"></circle><circle r="14" cx="1182" cy="32" fill="hsl(261, 39%, 70%)" opacity="0.55"></circle><circle r="15" cx="1076" cy="108" fill="hsl(257, 39%, 70%)" opacity="0.19"></circle><circle r="17" cx="1226" cy="314" fill="hsl(254, 39%, 70%)" opacity="0.32"></circle><circle r="19" cx="1121" cy="763" fill="hsl(243, 39%, 70%)" opacity="0.86"></circle><circle r="17" cx="991" cy="697" fill="hsl(247, 39%, 70%)" opacity="0.30"></circle><circle r="14.5" cx="931" cy="120" fill="hsl(266, 39%, 70%)" opacity="0.60"></circle><circle r="19" cx="465" cy="626" fill="hsl(228, 39%, 70%)" opacity="0.96"></circle><circle r="18" cx="1020" cy="627" fill="hsl(246, 39%, 70%)" opacity="0.80"></circle><circle r="17.5" cx="523" cy="153" fill="hsl(240, 39%, 70%)" opacity="0.51"></circle><circle r="14" cx="1054" cy="34" fill="hsl(263, 39%, 70%)" opacity="0.57"></circle><circle r="17" cx="31" cy="519" fill="hsl(240, 39%, 70%)" opacity="0.74"></circle><circle r="13.5" cx="999" cy="93" fill="hsl(264, 39%, 70%)" opacity="0.22"></circle><circle r="18" cx="1122" cy="552" fill="hsl(243, 39%, 70%)" opacity="0.46"></circle><circle r="17" cx="170" cy="772" fill="hsl(221, 39%, 70%)" opacity="0.63"></circle><circle r="20" cx="449" cy="260" fill="hsl(228, 39%, 70%)" opacity="0.58"></circle><circle r="19.5" cx="465" cy="188" fill="hsl(228, 39%, 70%)" opacity="0.83"></circle><circle r="20" cx="40" cy="595" fill="hsl(240, 39%, 70%)" opacity="0.61"></circle></svg>